<svg width="1024" height="1024" viewBox="0 0 1024 1024" fill="none" xmlns="http://www.w3.org/2000/svg">
  <defs>
    <radialGradient id="bgGlow" cx="50%" cy="38%" r="75%">
      <stop offset="0%" stop-color="#FFFDF8"/>
      <stop offset="58%" stop-color="#F7F0E6"/>
      <stop offset="100%" stop-color="#E8D8C5"/>
    </radialGradient>
    <linearGradient id="cGrad" x1="271" y1="218" x2="760" y2="820" gradientUnits="userSpaceOnUse">
      <stop stop-color="#6A5A45"/>
      <stop offset="0.55" stop-color="#3B2F24"/>
      <stop offset="1" stop-color="#2A2119"/>
    </linearGradient>
    <linearGradient id="paperGrad" x1="512" y1="331" x2="690" y2="719" gradientUnits="userSpaceOnUse">
      <stop stop-color="#FFFDF8"/>
      <stop offset="1" stop-color="#EFE7DC"/>
    </linearGradient>
    <linearGradient id="blueGrad" x1="561" y1="568" x2="630" y2="704" gradientUnits="userSpaceOnUse">
      <stop stop-color="#6FA2F4"/>
      <stop offset="1" stop-color="#1E5FBF"/>
    </linearGradient>
    <filter id="softShadow" x="-20%" y="-20%" width="140%" height="140%">
      <feDropShadow dx="0" dy="24" stdDeviation="28" flood-color="#3A2A1C" flood-opacity="0.16"/>
      <feDropShadow dx="0" dy="4" stdDeviation="10" flood-color="#FFFFFF" flood-opacity="0.55"/>
    </filter>
    <filter id="smallShadow" x="-30%" y="-30%" width="160%" height="160%">
      <feDropShadow dx="0" dy="10" stdDeviation="12" flood-color="#39291D" flood-opacity="0.14"/>
    </filter>
    <clipPath id="iconClip">
      <rect x="48" y="48" width="928" height="928" rx="205"/>
    </clipPath>
  </defs>

  <g clip-path="url(#iconClip)">
    <rect x="48" y="48" width="928" height="928" rx="205" fill="url(#bgGlow)"/>
    <rect x="49.5" y="49.5" width="925" height="925" rx="203.5" stroke="#EFE0CF" stroke-width="3" opacity="0.65"/>
    <circle cx="742" cy="214" r="245" fill="white" opacity="0.28"/>
    <circle cx="251" cy="831" r="230" fill="#D8C5B0" opacity="0.18"/>

    <!-- Large Cento C mark -->
    <path d="M717 238C663 190 591 161 512 161C332 161 186 307 186 512C186 717 332 863 512 863C591 863 663 834 717 786" 
          stroke="url(#cGrad)" stroke-width="143" stroke-linecap="round" filter="url(#softShadow)"/>
    <path d="M717 238C663 190 591 161 512 161C332 161 186 307 186 512C186 717 332 863 512 863C591 863 663 834 717 786" 
          stroke="#8A7960" stroke-width="6" stroke-linecap="round" opacity="0.22"/>

    <!-- Document card -->
    <rect x="486" y="330" width="228" height="318" rx="42" fill="url(#paperGrad)" filter="url(#softShadow)"/>
    <rect x="490" y="334" width="220" height="310" rx="39" stroke="white" stroke-width="8" opacity="0.65"/>
    <rect x="540" y="420" width="128" height="17" rx="8.5" fill="#D3C8BA"/>
    <rect x="540" y="468" width="128" height="17" rx="8.5" fill="#D3C8BA"/>
    <rect x="540" y="516" width="84" height="17" rx="8.5" fill="#D3C8BA"/>

    <!-- Bookmark -->
    <path d="M540 584C540 566 554 552 572 552H636C654 552 668 566 668 584V696C668 715 645 724 632 710L604 680L576 710C563 724 540 715 540 696V584Z" fill="url(#blueGrad)" filter="url(#smallShadow)"/>
    <path d="M552 586C552 575 561 566 572 566H636C647 566 656 575 656 586V685L613 640C608 635 600 635 595 640L552 685V586Z" stroke="#9CC0F6" stroke-width="2" opacity="0.52"/>
  </g>
</svg>
